<?xml version="1.0"?>
<svg xmlns="http://www.w3.org/2000/svg" xmlns:xlink="http://www.w3.org/1999/xlink" xmlns:svgjs="http://svgjs.com/svgjs" version="1.1" width="512" height="512" x="0" y="0" viewBox="0 0 512 512" style="enable-background:new 0 0 512 512" xml:space="preserve" class=""><g><g xmlns="http://www.w3.org/2000/svg"><path d="m307.862 182.708-119.313-71.417c-9.986-5.978-22.704 1.233-22.704 12.87v142.676c0 11.681 12.77 18.805 22.691 12.878l119.313-71.259c9.701-5.794 9.766-19.91.013-25.748zm-112.018 57.698v-89.785l75.083 44.942z" fill="#ffffff" data-original="#000000" style="" class=""/><path d="m506.978 320.847-25.976-23.131v-252.717c0-8.284-6.716-15-15-15h-451.002c-8.284 0-15 6.716-15 15v301c0 8.284 6.716 15 15 15h235.612c-24.951 47.894-17.068 87.481-18.561 106 0 14.755 19.177 20.623 27.433 8.392 4.7-4.708 37.231-73.26 122.55-81.558l-.032 29.149c-.015 12.978 15.448 19.885 25.093 11.113l100-90.95c6.581-5.986 6.537-16.372-.117-22.298zm-476.978 10.152v-271h421.002v211.001l-44.025-39.204c-9.65-8.593-24.976-1.726-24.976 11.202v29.676c-44.563 4.037-84.068 25.875-111.328 58.324h-240.673zm382.04 58.047.012-10.924c.008-8.286-6.71-15.017-15-15.017-51.242 0-99.533 21.181-134.051 57.79 7.963-66.872 65.022-118.896 134.001-118.896 8.284 0 15-6.716 15-15v-10.558l62.577 55.726z" fill="#ffffff" data-original="#000000" style="" class=""/></g></g></svg>
